<?xml version="1.0" encoding="UTF-8"?>
<svg width="302px" height="40px" viewBox="0 0 302 40" version="1.1" xmlns="http://www.w3.org/2000/svg" xmlns:xlink="http://www.w3.org/1999/xlink">
    <!-- Generator: Sketch 49.3 (51167) - http://www.bohemiancoding.com/sketch -->
    <title>UNICEF_ForEveryChild_Cyan_Horizontal_RGB_ENG</title>
    <desc>Created with Sketch.</desc>
    <defs>
        <polygon id="path-1" points="0 50 318.35443 50 318.35443 0 0 0"></polygon>
    </defs>
    <g id="Page-1" stroke="none" stroke-width="1" fill="none" fill-rule="evenodd">
        <g id="03.00-Logos" transform="translate(-170.000000, -180.000000)">
            <g id="UNICEF_ForEveryChild_Cyan_Horizontal_RGB_ENG" transform="translate(160.000000, 174.000000)">
                <path d="M112.708177,31.0724067 C111.317786,30.3095204 111.29093,29.253453 111.365065,28.8645963 C111.438921,28.4690257 111.710285,28.6421927 111.883175,28.6421927 C112.795741,28.6421927 113.756146,28.3716716 114.939237,27.1634186 C116.274236,25.8015812 116.692752,22.7757733 114.641855,20.8032352 C112.432337,18.6765532 110.082101,19.0483449 108.566659,20.9593373 C108.256409,21.351551 107.498268,21.6382977 106.842239,21.6161973 C105.870644,21.5789901 106.482751,22.344674 106.482751,22.5030141 C106.482751,22.6641518 106.335319,22.7757733 106.249154,22.7508752 C105.918762,22.6565985 106.051366,23.1447674 106.051366,23.2927567 C106.051366,23.440746 105.915405,23.5154401 105.842948,23.5154401 C105.434503,23.5154401 105.546685,23.8827557 105.559274,23.9845858 C105.570744,24.0816601 105.534656,24.2520296 105.398414,24.3278427 C105.268327,24.4014177 105.1153,24.7228538 105.1153,24.9693162 C105.1153,25.4132841 105.521507,25.7204529 106.201875,26.2270855 C106.877768,26.7331586 106.964213,27.2129349 106.976522,27.5589893 C106.989391,27.9028057 107.020444,28.4600736 107.175429,28.8285082 C107.35811,29.2713571 107.334051,30.085718 106.397425,30.1220859 C105.251822,30.1682451 103.21799,31.083317 103.04566,31.145702 C102.399422,31.3745399 101.544766,31.4576265 100.878385,31.290614 C100.519457,31.0365983 100.177315,30.7590834 99.8539161,30.4600275 C99.7199127,29.9992743 99.9521107,29.5049509 100.185708,29.1723246 C100.567575,29.5547469 101.135482,29.5295691 101.454124,29.5407592 C101.774726,29.5547469 103.339685,29.3085643 103.561811,29.2344298 C103.784778,29.1602952 103.882133,29.1849135 104.018095,29.2344298 C104.615095,29.4509585 105.435342,29.5164207 105.767973,28.3716716 C106.101443,27.225244 105.313368,27.5455612 105.214334,27.5947977 C105.1153,27.645433 104.978779,27.6320048 105.028296,27.534371 C105.174889,27.2420292 104.955839,27.2725223 104.831347,27.2613322 C104.512145,27.2297201 104.093069,27.5701794 103.957108,27.6927112 C103.820866,27.816362 103.686023,27.8037731 103.636227,27.7791549 C103.211556,27.5679414 101.945937,27.8734316 101.552599,27.1871976 C101.589527,27.0039594 101.231158,24.2170605 101.048757,23.7370044 C101.008472,23.6334958 100.973782,23.4659238 101.096595,23.2818464 C101.418036,22.798713 102.304585,23.317375 102.786046,23.3059051 C103.361785,23.2896794 103.453825,23.0496514 103.612168,22.8555029 C103.763236,22.6666696 103.8743,22.772696 103.957108,22.7203822 C104.062296,22.6521225 103.962703,22.5164423 104.00019,22.443147 C104.037957,22.3692922 104.08104,22.4056601 104.177836,22.3197759 C104.277429,22.2316538 104.164128,22.0486953 104.215043,21.9748405 C104.35688,21.7608295 104.744623,21.9314788 104.512145,21.3722527 C104.384576,21.0639649 104.561662,20.7296601 104.733712,20.5083755 C105.013189,20.1483335 106.091372,18.6309535 104.191264,17.0559443 C102.379,15.5542304 100.541558,15.6750837 99.358467,16.9571915 C98.1767747,18.2387398 98.7670613,20.1139239 98.8904341,20.6060093 C99.013527,21.0997733 98.6585157,21.5465388 98.2495114,21.7401278 C97.9255532,21.8934324 97.1867157,22.3860774 96.6291606,22.8714488 C96.7189625,18.85 99.1603993,15.3125239 102.902984,13.8060542 C103.062166,14.0055181 103.240091,14.1935121 103.432564,14.3711552 C103.014328,14.6755264 102.104839,15.4893278 102.104839,15.4893278 C102.104839,15.4893278 102.22961,15.5080712 102.34459,15.5363263 C102.42516,15.5553495 102.594972,15.6065443 102.594972,15.6065443 C102.594972,15.6065443 103.396475,14.9253458 103.771909,14.6537057 C104.064814,14.8769485 104.385415,15.062145 104.72448,15.2112533 C104.542359,15.5192613 104.086635,16.3778232 104.086635,16.3778232 C104.086635,16.3778232 104.191824,16.4404878 104.285822,16.503712 C104.381219,16.5672159 104.440807,16.6228867 104.440807,16.6228867 C104.440807,16.6228867 104.939054,15.6843156 105.12733,15.3707125 C105.546685,15.5100295 105.982826,15.5908781 106.425121,15.6104608 L106.425121,17.3306617 C106.180334,17.3236679 105.549203,17.2979306 105.293505,17.2716338 L105.132925,17.2556879 L105.222447,17.3894098 C105.290428,17.4892816 105.343022,17.5869154 105.389742,17.6764364 L105.407646,17.7136435 L105.449889,17.7172803 C105.635088,17.732387 106.211107,17.7528089 106.425121,17.758404 L106.425121,20.8882801 L106.859863,20.8882801 L106.859863,20.1721125 C107.49631,20.1413397 108.025889,20.0974185 108.666532,20.0420274 L108.694228,20.0386703 L109.255979,19.5418291 L108.949926,19.5684056 C108.273474,19.6568076 107.678991,19.6976515 107.140179,19.7278648 C107.140179,19.7278648 106.956659,19.7384954 106.859863,19.7443702 L106.859863,17.7575647 C107.6457,17.7407796 108.432655,17.6313961 109.202546,17.4294145 C109.412923,17.9455587 109.809058,19.1994115 109.809058,19.1994115 L110.217503,19.0715644 C110.217503,19.0715644 109.821647,17.827503 109.614068,17.3102398 C110.265062,17.1088176 110.894794,16.8394155 111.489557,16.5129438 C111.969899,17.1032226 112.38338,17.7472139 112.725522,18.4312099 C112.41751,18.5744434 111.856038,18.7733477 111.856877,18.7733477 C112.306447,18.822864 112.648029,18.9297296 112.648029,18.9297296 C112.648029,18.9297296 112.806931,18.8617496 112.908483,18.8167094 C112.948208,18.9062304 113.02654,19.0880698 113.02654,19.0880698 L113.588292,19.3378892 L113.523388,19.181787 C113.523388,19.181787 113.33735,18.7364203 113.293708,18.6334712 C113.88875,18.3391711 114.474001,18.0026283 115.033795,17.6266403 C116.098828,19.2553621 116.664217,21.1462123 116.664217,23.1016855 C116.664217,26.3493375 115.110728,29.2397451 112.708177,31.0724067 Z M105.55312,13.1486348 C104.935976,13.4177571 104.346249,13.7414313 103.789813,14.1207763 C103.6214,13.970549 103.468932,13.8122088 103.326536,13.6479938 C104.045791,13.3956566 104.789943,13.2297631 105.55312,13.1486348 Z M104.950804,14.8456162 C104.663493,14.7242034 104.398004,14.5739761 104.149021,14.3971722 C104.71329,14.0239818 105.317285,13.7059027 105.950374,13.4460122 C105.594524,13.8916586 105.255738,14.3602448 104.950804,14.8456162 Z M106.425121,13.5346939 L106.425121,15.1815995 C106.065354,15.1631358 105.708664,15.0985129 105.362326,14.9924865 C105.683207,14.491449 106.040456,14.0035598 106.425121,13.5346939 Z M106.859863,15.6132583 C107.308313,15.5919971 107.74893,15.5122675 108.173321,15.3707125 C108.492244,15.9014039 108.778994,16.458392 109.029936,17.0318856 C108.319913,17.2140047 107.590868,17.3149956 106.859863,17.3312212 L106.859863,15.6132583 Z M106.859863,13.5153909 C107.244249,13.9789416 107.606534,14.4738245 107.938046,14.9924865 C107.58835,15.0999116 107.225226,15.1648143 106.859863,15.1815995 L106.859863,13.5153909 Z M109.154707,14.3971722 C108.903486,14.5753749 108.63464,14.7253224 108.354044,14.844777 C108.050788,14.3663994 107.708925,13.8980929 107.34636,13.4420956 C107.979729,13.7019861 108.586242,14.0220235 109.154707,14.3971722 Z M109.972157,13.6502318 C109.8306,13.8194824 109.676733,13.9764238 109.509439,14.1218953 C108.958598,13.7439491 108.371668,13.4213939 107.759561,13.1542298 C108.51994,13.2359177 109.261854,13.3998529 109.972157,13.6502318 Z M111.206723,16.1800378 C110.64609,16.482171 110.054685,16.7291929 109.447893,16.9143893 C109.194433,16.3336222 108.902367,15.7620869 108.57673,15.2123723 C108.913837,15.0641033 109.2322,14.8794663 109.529302,14.6548247 C110.14113,15.0999116 110.704,15.6132583 111.206723,16.1800378 Z M110.397387,13.8094113 C111.229943,14.1456743 112.0155,14.5974753 112.737831,15.1519457 C112.378624,15.4493231 111.99144,15.721243 111.586353,15.963509 C111.074118,15.3760278 110.496421,14.8428187 109.867807,14.3745122 C110.058042,14.1993869 110.237086,14.0119524 110.397387,13.8094113 Z M114.790686,17.2730326 C114.25719,17.6347532 113.69348,17.9601059 113.110188,18.2468527 C112.766367,17.5567021 112.347851,16.9004017 111.863592,16.2958555 C112.291899,16.0340068 112.700903,15.7430637 113.079414,15.4247048 C113.726212,15.9671458 114.301112,16.5890366 114.790686,17.2730326 Z M106.645849,12.6582278 C100.887337,12.6582278 96.2025316,17.3424113 96.2025316,23.1016855 C96.2025316,28.8590013 100.887337,33.5443038 106.645849,33.5443038 C112.402963,33.5443038 117.088608,28.8590013 117.088608,23.1016855 C117.088608,17.3424113 112.402963,12.6582278 106.645849,12.6582278 Z" id="Fill-1" fill="#00AEEF"></path>
                <path d="M94.7918832,15.3421932 L94.6478001,15.4918918 C94.105137,16.0569021 92.8673104,17.5468984 93.0576881,19.1819333 C93.0581833,19.1874669 93.0769982,19.2958091 93.0769982,19.2958091 C93.0774934,19.2978478 93.1388895,19.6202532 93.1388895,19.6202532 L93.311195,19.4347317 C94.0697351,18.6177967 94.6388878,17.2343952 94.8708565,15.6383867 L94.9367089,15.1898734 L94.7918832,15.3421932 Z" id="Fill-3" fill="#00AEEF"></path>
                <path d="M92.2781365,17.905863 L92.2063188,18.0935136 C92.1071419,18.3517055 91.9270274,18.8937155 91.8307004,19.6151095 C91.6964696,20.6363037 91.7272486,22.0807452 92.6449202,23.1592541 C92.6434952,23.1581519 92.745522,23.2868345 92.745522,23.2868345 L92.8521087,23.4177215 L92.9877645,22.7621843 C93.1393798,21.6029387 92.939316,19.1739514 92.4998597,18.0893804 L92.3476744,17.721519 L92.2781365,17.905863 Z" id="Fill-5" fill="#00AEEF"></path>
                <path d="M91.1736307,22.3497251 L91.1592096,22.5472664 C91.0786917,23.6230543 91.1372775,26.2763222 93.401692,27.683341 C93.401692,27.6847662 93.6708861,27.8481013 93.6708861,27.8481013 L93.658568,27.547371 C93.6195109,26.5399957 92.3807977,23.5341179 91.4509366,22.4569048 L91.1874509,22.1518987 L91.1736307,22.3497251 Z" id="Fill-7" fill="#00AEEF"></path>
                <path d="M91.8114176,26.759463 L91.8483735,26.9374846 C92.1665409,28.4300198 93.6314967,30.8478208 95.8933145,31.548746 L96.2025316,31.6455696 L96.0907977,31.3506342 C95.6689805,30.2345114 93.4885812,27.6333871 92.0882983,26.7762048 L91.7721519,26.5822785 L91.8114176,26.759463 Z" id="Fill-9" fill="#00AEEF"></path>
                <path d="M96.0403488,17.1984614 L95.8771111,17.3083152 C94.3386155,18.348128 93.6189455,19.6085249 93.6737976,21.1634234 L93.6877743,21.5189873 L93.9114021,21.3112585 C94.7434133,20.5487096 95.7834933,18.5990971 96.0912452,17.4923787 L96.2025316,17.0886076 L96.0403488,17.1984614 Z" id="Fill-11" fill="#00AEEF"></path>
                <path d="M94.8013543,20.371159 L94.6782976,20.4894364 C94.265159,20.8920889 92.9289571,22.3459387 93.0451005,24.1455661 C93.0627985,24.4225842 93.1244651,24.7188436 93.2284411,25.0289681 L93.3227385,25.3164557 L93.4958474,25.0688655 C94.1340829,24.1495275 94.9808235,21.7237091 94.9349192,20.5952635 L94.9205396,20.2531646 L94.8013543,20.371159 Z" id="Fill-13" fill="#00AEEF"></path>
                <path d="M95.2767793,23.5583399 L95.194962,23.6989583 C94.5925787,24.7454948 94.2858254,25.8203865 94.3046112,26.8105021 C94.3211725,27.5428172 94.521143,28.2435945 94.8983432,28.894027 L95.024159,29.1139241 L95.1302002,28.8818748 C95.3909776,28.3086956 95.5966333,26.4517226 95.5667242,24.9830416 C95.5548595,24.464258 95.5098723,24.03488 95.4364591,23.7420697 L95.3573608,23.4177215 L95.2767793,23.5583399 Z" id="Fill-15" fill="#00AEEF"></path>
                <path d="M95.8707065,26.7267672 L95.8315961,26.87414 C95.6444796,27.5513049 95.5557782,28.2140497 95.5713712,28.8430517 C95.6079254,30.2657324 96.1654406,31.3789592 97.2331807,32.1501427 L97.4131397,32.278481 L97.4525058,32.0045003 C97.4525058,31.9993091 97.4683544,31.786181 97.4683544,31.786181 C97.4387021,30.6294057 96.6746429,27.7159817 96.0764836,26.8265539 L95.9113507,26.5822785 L95.8707065,26.7267672 Z" id="Fill-17" fill="#00AEEF"></path>
                <path d="M93.7577176,31.1514118 L93.844549,31.2898927 C94.74496,32.7248607 96.2721051,34.5763619 99.1286602,34.1012196 L99.3670886,34.06142 L99.2321129,33.871145 C98.6988014,33.1168599 95.2315602,31.2558177 94.0056028,31.0652701 L93.6708861,31.0126582 L93.7577176,31.1514118 Z" id="Fill-19" fill="#00AEEF"></path>
                <path d="M97.9102535,34.7861976 L97.4683544,34.9063727 L97.8921823,35.0815094 C99.6815207,35.8199313 101.925747,36.0389233 103.226314,35.5972371 C103.715368,35.4292198 104.01185,35.159253 104.374969,34.802145 C106.664656,35.0413561 108.809208,36.9615947 110.059232,38.5301361 C110.059232,38.5307057 110.126999,38.6075949 110.126999,38.6075949 L110.223567,38.577124 C110.364467,38.5287122 110.580757,38.3595558 110.671396,38.2610236 L110.759494,38.1650544 L110.680714,38.0596876 C109.376477,36.3405002 107.334423,35.2737326 107.244913,35.2310163 C105.407008,34.3274248 102.162932,33.6223216 97.9102535,34.7861976" id="Fill-21" fill="#00AEEF"></path>
                <path d="M98.1236039,30.5238694 L98.1472716,30.6669124 C98.3999043,32.2789801 99.0445165,34.3935876 101.726944,34.1593209 L101.898734,34.1455564 L101.85592,33.9755241 C101.674556,33.2427661 99.2171046,31.1138543 98.3584193,30.5152329 L98.1012658,30.3797468 L98.1236039,30.5238694 Z" id="Fill-23" fill="#00AEEF"></path>
                <path d="M117.721519,15.1898734 L117.78736,15.6383867 C118.019534,17.2343952 118.589079,18.6177967 119.347483,19.4347317 L119.520747,19.6202532 C119.520747,19.6202532 119.580647,19.2978478 119.580647,19.2958091 C119.580647,19.2958091 119.599459,19.1874669 119.600449,19.1819333 C119.791288,17.5468984 118.553436,16.0569021 118.011613,15.4918918 L117.866566,15.3421932 L117.721519,15.1898734 Z" id="Fill-25" fill="#00AEEF"></path>
                <path d="M120.311025,17.721519 L120.160163,18.0893804 C119.719248,19.1739514 119.518574,21.6029387 119.670574,22.7621843 L119.806634,23.4177215 L119.913376,23.2868345 C119.913376,23.2868345 120.015279,23.1584275 120.014994,23.1592541 C120.930412,22.0807452 120.962577,20.6363037 120.826802,19.6151095 C120.730592,18.8937155 120.552119,18.3517055 120.453632,18.0935136 L120.381332,17.905863 L120.311025,17.721519 Z" id="Fill-27" fill="#00AEEF"></path>
                <path d="M122.104155,22.1518987 L121.839558,22.4569048 C120.911064,23.5341179 119.670166,26.5399957 119.63228,27.547371 L119.620253,27.8481013 C119.620253,27.8481013 119.886053,27.6847662 119.886053,27.683341 C122.153767,26.2763222 122.211497,23.6230543 122.132419,22.5475515 L122.116784,22.3497251 L122.104155,22.1518987 Z" id="Fill-29" fill="#00AEEF"></path>
                <path d="M121.518987,26.5822785 L121.202635,26.7761941 C119.802717,27.6333292 117.622308,30.2343101 117.201467,31.3506504 L117.088608,31.6455696 L117.399476,31.5487513 C119.660127,30.8478648 121.124701,28.430197 121.442208,26.937465 L121.48233,26.7594532 L121.518987,26.5822785 Z" id="Fill-31" fill="#00AEEF"></path>
                <path d="M117.088608,17.0886076 L117.197604,17.4895326 C117.491242,18.5901279 118.525621,20.5378902 119.366951,21.3097212 L119.594976,21.5189873 L119.613413,21.1671317 C119.699091,19.632706 118.980585,18.3722025 117.419121,17.3125945 L117.252644,17.2003124 L117.088608,17.0886076 Z" id="Fill-33" fill="#00AEEF"></path>
                <path d="M117.735938,20.2531646 L117.72321,20.5949806 C117.678663,21.7234261 118.523407,24.1492446 119.162845,25.0685825 L119.335779,25.3164557 L119.431791,25.0289681 C119.534998,24.7185606 119.59587,24.4225842 119.613025,24.1452831 C119.730067,22.3456558 118.392808,20.8920889 117.979152,20.4894364 L117.858237,20.371159 L117.735938,20.2531646 Z" id="Fill-35" fill="#00AEEF"></path>
                <path d="M117.935873,23.4177215 L117.853657,23.7420697 C117.779119,24.0345907 117.735287,24.464258 117.724638,24.9830416 C117.693436,26.4517226 117.900461,28.3086956 118.159737,28.8815854 L118.266964,29.1139241 L118.394497,28.894027 C118.771649,28.2435945 118.970997,27.5428172 118.98635,26.8105021 C119.007152,25.8203865 118.700329,24.7454948 118.095847,23.6989583 L118.01586,23.5583399 L117.935873,23.4177215 Z" id="Fill-37" fill="#00AEEF"></path>
                <path d="M116.743681,26.5822785 L116.580378,26.8265539 C115.982622,27.7159817 115.217985,30.6294057 115.189873,31.786181 C115.189873,31.786181 115.204185,31.9993091 115.205463,32.0045003 L115.244563,32.278481 C115.244563,32.278481 115.424733,32.1501427 115.424989,32.1501427 C116.491443,31.3789592 117.050865,30.2657324 117.086899,28.8430517 C117.102232,28.2140497 117.01432,27.5513049 116.82546,26.87414 L116.78406,26.7267672 L116.743681,26.5822785 Z" id="Fill-39" fill="#00AEEF"></path>
                <path d="M119.620253,31.0126582 C119.620253,31.0126582 119.287189,31.0652701 119.286902,31.0652701 C118.060411,31.2558177 114.591899,33.1168599 114.058194,33.871145 L113.924051,34.06142 L114.161954,34.1012196 C117.02195,34.5763619 118.54711,32.7248607 119.447415,31.2898927 L119.533691,31.1514118 L119.620253,31.0126582 Z" id="Fill-41" fill="#00AEEF"></path>
                <path d="M106.046077,35.2308916 C105.956289,35.2736058 103.913192,36.3406077 102.610986,38.0594288 L102.531646,38.1647906 L102.620304,38.26104 C102.711221,38.3592828 102.926091,38.5284312 103.067549,38.5768407 L103.163831,38.6075949 C103.163831,38.6075949 103.230748,38.5304245 103.230748,38.529855 C104.479307,36.9616728 106.62405,35.0412404 108.914205,34.8023254 C109.276744,35.1591317 109.573778,35.4290857 110.06507,35.5973798 C111.364452,36.0387603 113.607454,35.8200634 115.398693,35.0816765 L115.822785,34.9062634 L115.38034,34.7860939 C111.12643,33.6222732 107.883056,34.3276277 106.046077,35.2308916" id="Fill-43" fill="#00AEEF"></path>
                <path d="M115.189873,30.3797468 L114.932914,30.5152246 C114.073456,31.1138098 111.615582,33.2425925 111.434434,33.9753061 L111.392405,34.145328 L111.562115,34.1593615 C114.246092,34.3933441 114.891151,32.2788649 115.144387,30.666895 L115.168061,30.5238607 L115.189873,30.3797468 Z" id="Fill-45" fill="#00AEEF"></path>
                <mask id="mask-2" fill="white">
                    <use xlink:href="#path-1"></use>
                </mask>
                <g id="Clip-48"></g>
                <path d="M43.9717523,36.0759494 L47.1648072,36.0759494 L47.1648072,20.2350601 L43.9717523,20.2350601 L43.9717523,36.0759494 Z M43.6708861,16.5423958 L47.4683544,16.5423958 L47.4683544,13.2911392 L43.6708861,13.2911392 L43.6708861,16.5423958 Z" id="Fill-47" fill="#00AEEF" mask="url(#mask-2)"></path>
                <path d="M21.1281639,20.2531646 L24.0506329,20.2531646 L24.0506329,36.2320394 L21.1892475,36.2320394 L21.1892475,33.875865 L21.1281639,33.875865 C19.9585764,35.8816181 17.9897207,36.7088608 15.8354326,36.7088608 C12.6056367,36.7088608 10.7594937,34.1628042 10.7594937,30.9477871 L10.7594937,20.2531646 L13.6833261,20.2531646 L13.6833261,29.7072052 C13.6833261,32.477001 14.2982527,34.5129434 17.0977364,34.5129434 C18.2981384,34.5129434 19.9280346,33.875865 20.5426884,32.2227904 C21.0951679,30.7257407 21.1281639,28.8480804 21.1281639,28.4660591 L21.1281639,20.2531646 Z" id="Fill-49" fill="#00AEEF" mask="url(#mask-2)"></path>
                <path d="M30.1785591,22.4518382 L30.2426732,22.4518382 C31.2614372,20.4472137 33.4921549,19.6202532 35.0854037,19.6202532 C36.2001977,19.6202532 41.1392405,19.9066281 41.1392405,25.0309055 L41.1392405,36.0759494 L38.1137343,36.0759494 L38.1137343,26.0181231 C38.1137343,23.3758559 36.9975281,21.9445455 34.4484996,21.9445455 C34.4484996,21.9445455 32.790007,21.8488991 31.5164813,23.1216452 C31.071637,23.5663023 30.2426732,24.2665807 30.2426732,27.3867978 L30.2426732,36.0759494 L27.2151899,36.0759494 L27.2151899,20.0970745 L30.1785591,20.0970745 L30.1785591,22.4518382 Z" id="Fill-50" fill="#00AEEF" mask="url(#mask-2)"></path>
                <path d="M58.9502877,25.0658425 C58.794583,23.1163574 57.8647879,21.7584782 55.7516926,21.7584782 C52.9285065,21.7584782 51.839959,24.1974731 51.839959,27.8497569 C51.839959,31.4992813 52.9285065,33.9437949 55.7516926,33.9437949 C57.7060356,33.9437949 58.9173182,32.6794579 59.0716376,30.4482425 L62.0253165,30.4482425 C61.7734738,33.9437949 59.1672214,36.0759494 55.7190002,36.0759494 C50.7209356,36.0759494 48.7341772,32.5525275 48.7341772,27.973376 C48.7341772,23.4212662 51.0304056,19.6202532 55.971951,19.6202532 C59.2633594,19.6202532 61.7454913,21.6955649 61.896209,25.0658425 L58.9502877,25.0658425 Z" id="Fill-51" fill="#00AEEF" mask="url(#mask-2)"></path>
                <path d="M74.151937,26.366327 C74.2135031,23.769221 73.0451163,21.7582023 70.2242969,21.7582023 C67.7985947,21.7582023 66.3620536,23.8238563 66.3620536,26.366327 L74.151937,26.366327 Z M66.3620536,28.4046634 C66.1475302,31.1273201 67.2518882,33.943519 70.2242969,33.943519 C72.4945791,33.943519 73.6287625,33.0481079 73.964229,30.7843321 L77.0351434,30.7843321 C76.5729876,34.3157561 73.8733849,36.0759494 70.1958397,36.0759494 C65.2571483,36.0759494 63.2911392,32.5525275 63.2911392,27.973376 C63.2911392,23.4209903 65.5655258,19.6202532 70.4407358,19.6202532 C75.039309,19.7168306 77.2151899,22.6514059 77.2151899,26.9551736 L77.2151899,28.4046634 L66.3620536,28.4046634 Z" id="Fill-52" fill="#00AEEF" mask="url(#mask-2)"></path>
                <path d="M81.1136725,36.0759494 L81.1136725,22.4443428 L78.4810127,22.4443428 L78.4810127,20.3765473 L81.1136725,20.3765473 L81.1136725,17.0038621 C81.2080165,13.563394 83.7335537,12.6582278 85.8982999,12.6582278 C86.5981312,12.6582278 87.2718615,12.8440031 87.9746835,12.9675743 L87.9746835,15.4367671 C87.4820284,15.4105465 86.9964423,15.3416479 86.506506,15.3416479 C84.864866,15.3416479 83.9187072,15.7843285 84.0084292,17.5009363 L84.0084292,20.3765473 L87.5445619,20.3765473 L87.5445619,22.4443428 L84.0084292,22.4443428 L84.0084292,36.0759494 L81.1136725,36.0759494 Z" id="Fill-53" fill="#00AEEF" mask="url(#mask-2)"></path>
                <path d="M141.182342,35.443038 L141.182342,21.5673832 L137.974684,21.5673832 L137.974684,19.8600538 L141.182342,19.8600538 L141.182342,16.538522 C141.182342,13.8688796 142.293907,12.6582278 145.02518,12.6582278 C145.628601,12.6582278 146.263781,12.8755243 146.835443,12.9996937 L146.835443,14.4897267 C146.454335,14.427642 146.041468,14.3655573 145.66036,14.3655573 C143.056123,14.3655573 142.992605,15.6382938 143.087882,17.8733432 L143.087882,19.8600538 L146.708407,19.8600538 L146.708407,21.5673832 L143.087882,21.5673832 L143.087882,35.443038 L141.182342,35.443038 Z" id="Fill-54" fill="#00AEEF" mask="url(#mask-2)"></path>
                <path d="M154.746835,21.3215285 C150.983176,21.3215285 149.490155,24.9715374 149.490155,27.8479632 C149.490155,30.7246651 150.983176,34.374674 154.746835,34.374674 C158.510494,34.374674 160.003516,30.7246651 160.003516,27.8479632 C160.003516,24.9715374 158.510494,21.3215285 154.746835,21.3215285 M162.025316,27.8479632 C162.025316,31.9313002 159.723575,36.0759494 154.746835,36.0759494 C149.770096,36.0759494 147.468354,31.9313002 147.468354,27.8479632 C147.468354,23.7651785 149.770096,19.6202532 154.746835,19.6202532 C159.723575,19.6202532 162.025316,23.7651785 162.025316,27.8479632" id="Fill-55" fill="#00AEEF" mask="url(#mask-2)"></path>
                <path d="M166.613642,35.443038 L164.714907,35.443038 L164.714907,23.5472968 C164.746835,22.3546373 164.619971,21.1311237 164.556962,20.0916423 L166.518705,20.0916423 L166.613642,22.3546373 L166.677215,22.3546373 C167.246553,20.7950056 168.670604,19.6940891 170.252882,19.6329271 C170.885793,19.6023461 171.518705,19.6329271 172.151899,19.6632351 L172.151899,21.4372069 C171.771869,21.4066259 171.360477,21.3148828 170.98073,21.3148828 C168.164274,21.3148828 166.677215,23.2720677 166.613642,26.207845 L166.613642,35.443038 Z" id="Fill-56" fill="#00AEEF" mask="url(#mask-2)"></path>
                <path d="M191.040042,26.5800159 C190.824881,23.5795849 189.226809,21.3215285 186.029843,21.3215285 C183.017851,21.3215285 181.41923,23.8582516 181.173331,26.5800159 L191.040042,26.5800159 Z M181.111856,28.2812913 C181.173331,31.5913213 182.679465,34.3749502 186.460442,34.3749502 C188.642798,34.3749502 190.456032,32.797404 190.917093,30.6630767 L192.85355,30.6630767 C191.90069,34.3749502 189.595384,36.0759494 185.876431,36.0759494 C181.265543,36.0759494 179.113924,32.0862377 179.113924,27.8482394 C179.113924,23.6414494 181.41923,19.6202532 185.999106,19.6202532 C191.162992,19.6202532 193.037975,23.4249235 193.037975,28.2812913 L181.111856,28.2812913 Z" id="Fill-57" fill="#00AEEF" mask="url(#mask-2)"></path>
                <polygon id="Fill-58" fill="#00AEEF" mask="url(#mask-2)" points="195.706393 20.2531646 201.04189 33.4600665 206.192341 20.2531646 208.227848 20.2531646 202.090485 36.0759494 199.993295 36.0759494 193.670886 20.2531646"></polygon>
                <path d="M220.786878,26.5800159 C220.571716,23.5795849 218.973645,21.3215285 215.776679,21.3215285 C212.764686,21.3215285 211.166066,23.8582516 210.920167,26.5800159 L220.786878,26.5800159 Z M210.858692,28.2812913 C210.920167,31.5913213 212.4263,34.3749502 216.207277,34.3749502 C218.389359,34.3749502 220.202867,32.797404 220.663928,30.6630767 L222.600386,30.6630767 C221.647526,34.3749502 219.342219,36.0759494 215.623266,36.0759494 C211.012653,36.0759494 208.860759,32.0862377 208.860759,27.8482394 C208.860759,23.6414494 211.166066,19.6202532 215.745941,19.6202532 C220.909828,19.6202532 222.78481,23.4249235 222.78481,28.2812913 L210.858692,28.2812913 Z" id="Fill-59" fill="#00AEEF" mask="url(#mask-2)"></path>
                <path d="M227.373135,35.443038 L225.474401,35.443038 L225.474401,23.5472968 C225.506329,22.3546373 225.379464,21.1311237 225.316456,20.0916423 L227.278198,20.0916423 L227.373135,22.3546373 L227.436709,22.3546373 C228.006047,20.7950056 229.430097,19.6940891 231.012376,19.6329271 C231.645287,19.6023461 232.278198,19.6329271 232.911392,19.6632351 L232.911392,21.4372069 C232.531363,21.4066259 232.119971,21.3148828 231.740224,21.3148828 C228.923768,21.3148828 227.436709,23.2720677 227.373135,26.207845 L227.373135,35.443038 Z" id="Fill-60" fill="#00AEEF" mask="url(#mask-2)"></path>
                <polygon id="Fill-61" fill="#00AEEF" mask="url(#mask-2)" points="237.047344 20.2531646 242.226655 33.2763504 247.375046 20.2531646 249.367089 20.2531646 240.878195 41.7721519 238.855232 41.7721519 241.18439 35.8186955 234.810127 20.2531646"></polygon>
                <path d="M267.009494,24.8478083 C266.857352,22.4660228 265.366358,21.3215285 262.840798,21.3215285 C260.041654,21.3215285 258.306962,24.2910273 258.306962,27.8173071 C258.306962,31.3745192 260.041654,34.374674 262.840798,34.374674 C265.214216,34.374674 266.857352,32.8902008 267.009494,30.7558736 L268.987342,30.7558736 C268.500487,34.3128095 266.49221,36.0759494 263.023369,36.0759494 C258.459104,36.0759494 256.329114,32.0859616 256.329114,27.8479632 C256.329114,23.6414494 258.611246,19.6202532 263.145083,19.6202532 C266.279211,19.6202532 268.8352,21.5380545 268.987342,24.8478083 L267.009494,24.8478083 Z" id="Fill-62" fill="#00AEEF" mask="url(#mask-2)"></path>
                <path d="M273.973916,22.3729164 L274.034921,22.3729164 C275.097765,20.4706523 276.828411,19.5808836 278.802534,19.5808836 C283.782445,19.5808836 284.177215,24.0297271 284.177215,25.8092645 L284.177215,35.443038 L282.355198,35.443038 L282.355198,25.5024477 C282.355198,22.8331416 280.83685,21.2683759 278.346759,21.2683759 C275.34043,21.2683759 273.973916,23.8149553 273.973916,26.5763065 L273.973916,35.443038 L272.151899,35.443038 L272.151899,13.2911392 L273.973916,13.2911392 L273.973916,22.3729164 Z" id="Fill-63" fill="#00AEEF" mask="url(#mask-2)"></path>
                <path d="M287.477638,35.443038 L289.105125,35.443038 L289.105125,20.0411088 L287.477638,20.0411088 L287.477638,35.443038 Z M287.341772,15.5922652 L289.240506,15.5922652 L289.240506,13.2911392 L287.341772,13.2911392 L287.341772,15.5922652 Z" id="Fill-64" fill="#00AEEF" mask="url(#mask-2)"></path>
                <polygon id="Fill-65" fill="#00AEEF" mask="url(#mask-2)" points="293.037975 35.443038 294.936709 35.443038 294.936709 13.2911392 293.037975 13.2911392"></polygon>
                <path d="M304.226851,21.3292972 C300.659719,21.3292972 299.501966,24.6063923 299.501966,27.5743276 C299.501966,30.4495148 300.346813,34.3755698 303.945235,34.3755698 C308.044308,34.3755698 309.296212,31.0060027 309.296212,27.4815796 C309.296212,24.3281484 307.887855,21.3292972 304.226851,21.3292972 Z M309.358514,33.3247021 L309.296212,33.2007621 C308.013017,35.0559977 306.104289,36.0759494 303.913945,36.0759494 C299.251641,36.0759494 297.468354,31.6861545 297.468354,27.7907395 C297.468354,23.7716606 299.251641,19.6289176 303.913945,19.6289176 C306.010417,19.6289176 308.200761,20.6182294 309.296212,22.4422729 L309.358514,22.3804409 L309.358514,13.2911392 L311.235952,13.2911392 L311.235952,32.1187024 C311.235952,33.3247021 311.329824,34.5613418 311.392405,35.6122095 L309.452386,35.6122095 L309.358514,33.3247021 Z" id="Fill-66" fill="#00AEEF" mask="url(#mask-2)"></path>
                <polygon id="Fill-67" fill="#00AEEF" mask="url(#mask-2)" points="129.746835 45.5696203 130.379747 45.5696203 130.379747 6.96202532 129.746835 6.96202532"></polygon>
            </g>
        </g>
    </g>
</svg>